<?xml version='1.0' encoding='utf-8'?>
<svg xmlns="http://www.w3.org/2000/svg" height="339.9px" width="751.2px" viewBox="31.75 233.3 751.2 339.9">
  <g>
    <path d="M747.0 243.1 L747.0 258.7 735.7 266.5 735.7 282.15 747.0 289.95 747.0 305.55 758.3 313.35 769.65 305.55 780.95 313.35 780.95 329.0 769.65 336.8 769.65 352.45 769.6 352.45 780.95 360.25 780.95 375.9 769.65 383.7 769.65 399.35 780.95 407.15 780.95 422.75 769.65 430.6 769.65 446.2 780.95 454.0 780.95 469.65 769.65 477.45 769.65 493.1 780.95 500.9 780.95 516.5 769.65 524.3 769.65 539.95 780.95 547.75 780.95 563.4 769.65 571.2 758.3 563.4 747.0 571.2 735.7 563.4 724.35 571.2 713.05 563.4 701.75 571.2 690.4 563.4 679.05 571.2 667.75 563.4 656.45 571.2 645.1 563.4 633.8 571.2 622.5 563.4 622.5 547.75 633.8 539.95 633.8 524.3 645.1 516.5 645.1 500.9 656.45 493.1 656.35 477.4 645.05 469.65 645.05 454.0 633.75 446.2 622.4 454.0 611.1 446.2 611.1 430.55 599.85 422.75 599.85 407.2 611.15 399.4 611.15 383.7 599.85 375.95 588.5 383.7 577.2 375.95 565.85 383.7 554.55 375.95 543.2 383.7 531.9 375.95 520.6 383.7 510.9 377.0 509.25 375.95 509.25 375.9 497.95 383.7 486.6 375.9 475.3 383.7 475.3 399.35 474.2 400.1 475.3 399.4 486.6 407.2 497.95 399.4 509.25 407.2 509.25 422.75 520.6 430.6 531.9 422.75 543.15 430.55 543.15 446.15 531.85 454.0 520.6 446.15 509.25 454.0 509.25 469.6 520.6 477.4 520.6 493.05 531.85 500.85 531.85 516.45 520.6 524.25 509.25 516.45 497.95 524.25 486.6 516.45 475.3 524.25 463.95 516.45 452.65 524.25 441.35 516.45 441.35 500.85 430.0 493.05 430.0 477.4 418.7 469.6 407.4 477.4 396.05 469.6 384.7 477.4 373.4 469.6 362.1 477.4 350.75 469.6 339.45 477.4 339.45 493.05 328.1 500.85 328.1 516.45 316.8 524.25 305.5 516.45 294.15 524.25 282.85 516.45 271.5 524.25 260.2 516.45 248.85 524.25 248.85 540.0 260.2 547.8 260.2 563.4 248.85 571.2 248.85 571.1 237.55 563.3 226.25 571.1 214.9 563.3 203.6 571.1 192.3 563.35 180.9 571.15 169.6 563.4 158.3 571.2 147.0 563.4 135.65 571.2 124.35 563.4 116.25 568.95 113.05 571.2 101.7 563.4 101.7 547.8 113.05 540.0 113.05 524.35 101.7 516.55 90.4 524.35 79.05 516.55 79.0 500.9 67.75 493.1 67.75 477.45 79.05 469.65 79.05 454.0 88.9 447.2 90.3 446.2 90.35 444.25 90.3 430.65 79.0 422.8 79.0 407.2 67.75 399.4 67.75 383.7 79.05 375.9 90.4 383.7 101.7 375.9 113.05 383.7 124.35 375.9 135.65 383.7 147.0 375.9 147.0 360.35 135.65 352.5 135.65 336.9 147.0 329.05 158.3 336.9 169.6 329.05 180.95 336.9 192.3 329.05 192.3 313.45 203.6 305.6 214.9 313.45 226.25 305.6 226.25 290.0 214.9 282.2 203.6 290.0 192.3 282.2 192.3 266.6 180.95 258.8 169.6 266.6 158.3 258.8 147.0 266.6 135.65 258.8 124.35 266.6 124.35 282.2 113.05 290.0 113.05 305.6 101.7 313.45 90.4 305.6 79.05 313.45 67.75 305.6 56.4 313.45 45.1 305.6 45.1 290.0 33.75 282.2 33.75 266.6 45.1 258.8 45.1 243.2 56.4 235.35 67.75 243.2 79.05 235.35 90.4 243.2 101.7 235.35 113.05 243.2 124.35 235.35 135.65 243.2 147.0 235.35 158.3 243.2 169.6 235.35 180.95 243.2 192.3 235.35 203.6 243.2 214.9 235.35 226.25 243.2 237.55 235.35 248.85 243.2 260.2 235.35 271.5 243.2 282.85 235.35 294.15 243.2 305.5 235.35 316.8 243.2 328.1 235.35 339.45 243.2 350.75 235.35 362.1 243.2 362.1 258.8 373.4 266.6 373.4 282.2 362.1 290.0 362.1 305.6 350.75 313.45 339.45 305.6 Q333.75 309.5 328.1 313.45 L328.1 329.05 339.45 336.9 350.75 329.05 362.1 336.9 373.4 329.05 384.7 336.9 396.05 329.05 407.4 336.9 418.7 329.05 418.7 313.45 430.0 305.6 430.0 290.0 418.7 282.2 418.7 266.6 430.0 258.8 441.35 266.6 452.65 258.8 452.65 243.2 463.95 235.35 475.3 243.2 486.6 235.35 497.95 243.2 497.95 243.1 509.25 235.3 520.6 243.1 531.9 235.3 543.2 243.1 554.55 235.3 565.85 243.1 577.2 235.3 588.5 243.1 599.85 235.3 611.15 243.1 622.5 235.3 633.8 243.1 645.1 235.3 656.45 243.1 667.75 235.3 679.05 243.1 690.4 235.3 701.75 243.1 713.05 235.3 724.35 243.1 735.7 235.3 747.0 243.1 M497.95 243.2 L497.95 258.8 509.2 266.6 509.2 282.2 520.5 290.0 520.5 305.6 520.6 305.55 531.9 313.35 543.2 305.55 554.55 313.35 565.85 305.55 565.85 289.95 577.2 282.15 577.2 266.5 588.5 258.7 599.85 266.5 611.15 258.7 622.5 266.5 633.8 258.7 645.1 266.5 645.1 282.15 656.45 289.95 667.75 282.15 667.75 266.5 679.05 258.7 679.05 243.1 M735.7 282.15 L724.35 289.95 713.05 282.15 701.75 289.95 690.4 282.15 679.05 289.95 679.05 305.55 667.75 313.35 656.45 305.55 645.1 313.35 645.1 329.0 656.45 336.8 667.75 329.0 679.05 336.8 690.4 329.0 701.75 336.8 701.75 352.45 701.65 352.45 713.0 360.35 724.3 352.5 735.6 360.35 746.95 352.5 758.3 360.35 758.3 360.2 769.6 352.45 M679.05 289.95 L667.75 282.15 M701.65 352.45 L690.4 360.2 690.4 375.85 679.05 383.65 679.05 383.7 679.05 399.4 690.4 407.2 690.4 422.75 690.35 422.75 701.65 430.6 701.65 446.2 713.05 454.0 724.35 446.2 735.7 454.0 747.0 446.2 758.3 454.0 769.65 446.2 M645.1 329.0 L633.8 336.8 622.5 329.0 611.15 336.8 599.85 329.0 588.5 336.8 588.5 352.45 599.85 360.2 599.85 375.85 611.15 383.65 611.15 383.7 622.5 375.95 633.8 383.7 645.1 375.95 656.45 383.7 667.75 375.95 679.05 383.7 M769.65 493.1 L758.3 500.9 747.0 493.1 735.7 500.9 735.7 516.5 724.35 524.3 713.05 516.5 701.75 524.3 690.4 516.5 690.4 500.9 679.05 493.1 667.75 500.9 656.45 493.1 M701.65 446.2 L690.35 454.0 690.35 469.65 679.05 477.4 667.7 469.65 656.35 477.4 M509.25 375.9 L509.2 360.35 497.95 352.5 497.95 336.9 486.6 329.05 486.6 313.45 475.3 305.6 463.95 313.45 452.65 305.6 441.35 313.45 430.0 305.6 M407.4 336.9 L407.4 352.5 396.05 360.35 396.05 375.9 384.7 383.7 384.7 399.35 396.05 407.15 407.4 399.35 418.7 407.15 430.0 399.35 441.35 407.15 452.65 399.35 463.95 407.15 465.2 406.3 474.2 400.1 M384.7 383.7 L373.4 375.9 362.1 383.7 350.75 375.9 339.45 383.7 328.1 375.9 316.8 383.7 316.8 399.35 305.5 407.15 305.5 422.75 316.8 430.55 316.8 430.6 316.8 446.15 328.1 454.0 Q333.75 450.05 339.45 446.15 L350.75 454.0 362.1 446.15 373.4 454.0 384.7 446.15 384.7 430.6 384.7 430.55 396.05 422.75 396.05 407.15 M463.95 407.15 L463.95 407.2 465.2 406.3 M520.5 305.6 L509.2 313.45 505.0 310.5 497.95 305.6 486.6 313.45 M520.5 305.6 L509.25 313.35 505.0 310.5 M510.9 377.0 L509.25 375.9 M543.2 383.7 L543.2 383.65 554.55 375.85 565.85 383.65 577.2 375.85 588.5 383.65 599.85 375.85 M147.0 375.9 L158.3 383.7 158.3 399.35 169.6 407.15 180.95 399.35 192.3 407.15 203.6 399.35 214.9 407.15 226.25 399.35 226.25 383.7 237.55 375.9 237.55 360.35 248.85 352.5 248.85 336.9 237.55 329.05 226.25 336.9 214.9 329.05 203.6 336.9 192.3 329.05 M158.3 399.35 L147.0 407.15 147.0 422.75 135.65 430.55 135.65 446.2 147.0 454.0 158.3 446.2 169.6 454.0 180.95 446.2 180.95 430.6 192.3 422.75 203.6 430.6 214.9 422.75 224.8 429.6 226.25 430.55 237.55 422.75 237.55 407.15 248.85 399.35 248.85 383.7 237.55 375.9 M226.25 290.0 L237.55 282.2 248.85 290.0 260.2 282.2 271.5 290.0 282.85 282.2 282.85 266.6 294.15 258.8 294.15 243.2 M328.1 313.45 L316.8 305.6 305.5 313.45 294.15 305.6 294.15 290.0 282.85 282.2 M226.25 243.2 L226.25 258.8 214.9 266.6 214.9 282.2 M248.85 383.7 L260.2 375.9 271.5 383.7 282.85 375.9 294.15 383.7 305.5 375.9 305.5 360.35 316.8 352.5 316.8 336.9 328.1 329.05 M316.8 383.7 L305.5 375.9 M305.5 422.75 L294.15 430.55 282.85 422.75 271.5 430.55 260.2 422.75 248.85 430.55 237.55 422.75 M224.8 429.6 L226.25 430.6 226.25 446.15 226.25 446.2 214.9 454.0 214.9 469.6 216.35 470.6 226.25 477.4 236.15 470.6 237.55 469.6 238.95 470.6 248.85 477.4 258.75 470.6 260.2 469.6 261.6 470.6 271.5 477.4 282.85 469.65 282.85 454.0 294.15 446.2 294.15 430.6 305.5 422.75 316.8 430.6 M316.8 446.15 L316.8 446.2 328.1 454.0 339.45 446.2 350.75 454.0 362.1 446.2 362.1 446.15 M260.2 516.45 L260.2 500.85 271.5 493.05 271.5 477.4 M261.6 470.6 L260.2 469.65 258.75 470.6 M214.9 454.0 L226.25 446.15 M216.35 470.6 L214.9 469.65 214.9 469.6 203.6 477.4 192.3 469.6 180.95 477.4 169.6 469.6 158.3 477.4 158.3 493.05 169.6 500.85 169.6 516.45 180.95 524.25 180.95 524.35 180.95 540.0 169.6 547.8 169.6 563.4 M238.95 470.6 L237.55 469.65 236.15 470.6 M180.95 524.35 L169.6 516.55 158.3 524.35 147.0 516.55 135.65 524.35 124.35 516.55 113.05 524.35 113.05 524.25 124.35 516.45 135.65 524.25 147.0 516.45 158.3 524.25 169.6 516.45 M135.65 446.2 L124.35 454.0 113.05 446.2 101.7 454.0 90.4 446.2 90.4 446.15 90.3 446.2 90.3 446.25 88.9 447.2 M90.4 446.15 L90.35 444.25 M113.05 571.2 L113.05 571.1 116.25 568.95 M509.25 454.0 L497.95 446.15 486.6 454.0 475.3 446.15 463.95 454.0 452.65 446.15 452.65 446.2 441.35 454.0 441.35 469.6 430.0 477.4 M441.35 454.0 L452.65 446.15 452.65 430.6 463.95 422.75 463.95 407.2 M384.7 430.6 L396.05 422.75 M350.75 454.0 L350.75 469.6" fill="none" stroke="#cccccc" stroke-linecap="round" stroke-linejoin="round" stroke-width="4.0" />
  </g>
</svg>