<?xml version='1.0' encoding='utf-8'?>
<svg xmlns="http://www.w3.org/2000/svg" xmlns:xlink="http://www.w3.org/1999/xlink" height="81.8px" width="70.65px" viewBox="-11.5 -53.05 70.65 81.8">
  <g>
    <use height="74.05" transform="matrix(1.0, 0.0, 0.0, 1.0, 0.0, 0.0)" width="50.4" xlink:href="#shape0" />
  </g>
  <defs>
    <g id="shape0">
      <path d="M53.5 25.8 Q51.15 27.75 46.15 28.75 L25.5 28.75 25.35 28.75 19.35 26.75 19.2 26.65 12.2 21.65 12.15 21.6 11.15 20.6 11.0 20.35 Q10.95 20.15 11.05 20.05 L11.3 19.8 33.3 8.8 33.5 8.75 45.85 8.75 Q49.1 8.9 52.9 10.65 56.1 13.35 58.7 16.45 59.65 18.5 58.7 20.55 56.55 23.35 53.5 25.8" fill="#000000" fill-opacity="0.9137255" fill-rule="evenodd" stroke="none" />
      <path d="M23.35 -32.35 Q22.75 -32.8 21.95 -32.8 21.1 -32.8 20.55 -32.35 19.95 -31.9 19.95 -31.3 19.95 -30.7 20.55 -30.25 21.1 -29.85 21.95 -29.8 22.75 -29.85 23.35 -30.25 23.9 -30.7 23.9 -31.3 23.9 -31.9 23.35 -32.35 M28.1 -34.45 Q28.1 -35.05 27.55 -35.5 26.95 -35.95 26.15 -35.9 L24.75 -35.5 Q24.15 -35.05 24.15 -34.45 24.15 -33.85 24.75 -33.4 25.3 -32.95 26.15 -32.95 26.95 -32.95 27.55 -33.4 28.1 -33.85 28.1 -34.45 M20.55 -38.45 Q21.15 -38.9 21.15 -39.5 21.15 -40.15 20.55 -40.55 19.95 -41.0 19.15 -41.0 18.35 -41.0 17.75 -40.55 17.15 -40.15 17.2 -39.5 17.15 -38.9 17.75 -38.45 L19.15 -38.05 Q19.95 -38.05 20.55 -38.45 M24.7 -43.6 Q24.1 -44.05 23.3 -44.05 22.45 -44.05 21.9 -43.6 21.3 -43.2 21.3 -42.55 21.3 -41.95 21.9 -41.5 22.45 -41.1 23.3 -41.05 24.1 -41.1 24.7 -41.5 25.25 -41.95 25.3 -42.55 L24.7 -43.6 M32.35 -37.5 Q32.35 -38.15 31.75 -38.55 31.15 -39.0 30.35 -39.0 29.55 -39.0 28.95 -38.55 28.35 -38.15 28.4 -37.5 28.35 -36.9 28.95 -36.45 29.55 -36.05 30.35 -36.0 31.15 -36.05 31.75 -36.45 32.35 -36.9 32.35 -37.5 M26.2 -28.9 L25.25 -28.75 21.3 -28.65 19.35 -28.9 12.5 -34.05 Q11.15 -36.6 12.5 -39.85 L19.0 -44.6 Q22.5 -45.95 26.5 -44.6 L33.35 -39.5 Q34.3 -36.7 33.35 -34.4 L26.2 -28.9 M16.4 -37.5 Q15.8 -37.95 15.0 -37.95 14.15 -37.95 13.6 -37.5 13.0 -37.05 13.0 -36.45 13.0 -35.85 13.6 -35.4 14.15 -34.95 15.0 -34.95 15.8 -34.95 16.4 -35.4 16.95 -35.85 17.0 -36.45 16.95 -37.05 16.4 -37.5 M12.05 -21.25 L12.2 -21.1 19.7 -15.6 Q22.75 -15.1 25.85 -15.6 L33.7 -21.5 33.35 -20.4 26.2 -14.9 25.25 -14.75 21.3 -14.65 19.35 -14.9 12.5 -20.05 Q12.2 -20.65 12.05 -21.25 M12.05 -7.25 L12.2 -7.1 19.7 -1.6 Q22.75 -1.1 25.85 -1.6 L33.7 -7.5 33.35 -6.4 26.2 -0.9 25.25 -0.75 21.3 -0.65 19.35 -0.9 12.5 -6.05 Q12.2 -6.65 12.05 -7.25 M33.7 6.5 L33.35 7.6 26.2 13.1 Q22.75 13.75 19.35 13.1 L12.5 7.95 Q12.2 7.35 12.05 6.75 L12.2 6.9 19.7 12.4 Q22.75 12.9 25.85 12.4 L33.7 6.5" fill="#02e6e6" fill-rule="evenodd" stroke="none" />
      <path d="M33.35 -34.4 Q34.3 -36.7 33.35 -39.5 35.45 -37.3 36.75 -34.05 35.1 -35.25 33.35 -34.4 M35.1 -23.25 L36.75 -20.05 Q35.1 -21.25 33.35 -20.4 L33.7 -21.5 34.05 -21.75 35.1 -23.25 M35.1 -9.25 L36.75 -6.05 Q35.1 -7.25 33.35 -6.4 L33.7 -7.5 34.05 -7.75 35.1 -9.25 M35.1 4.75 L36.75 7.95 Q35.1 6.75 33.35 7.6 L33.7 6.5 34.05 6.25 35.1 4.75" fill="#006a6a" fill-rule="evenodd" stroke="none" />
      <path d="M26.2 -28.9 L33.35 -34.4 Q35.1 -35.25 36.75 -34.05 L36.75 -26.9 Q36.2 -24.95 35.1 -23.25 L34.05 -21.75 33.7 -21.5 25.85 -15.6 Q24.3 -15.6 23.3 -16.25 L22.75 -16.65 22.75 -23.45 Q23.65 -26.45 26.2 -28.9 M34.3 -26.15 L33.4 -26.05 32.35 -25.05 Q31.85 -24.4 31.75 -23.7 31.65 -23.1 31.95 -22.85 L32.85 -22.95 33.9 -23.95 Q34.4 -24.65 34.5 -25.3 34.6 -25.95 34.3 -26.15 M33.35 -32.6 Q32.75 -32.25 32.3 -31.55 31.8 -30.9 31.7 -30.25 31.55 -29.6 31.9 -29.4 L32.8 -29.5 33.85 -30.5 34.45 -31.85 Q34.55 -32.5 34.25 -32.7 L33.35 -32.6 M27.5 -26.6 Q27.6 -27.25 27.3 -27.45 L26.4 -27.35 25.35 -26.35 Q24.85 -25.65 24.75 -25.0 24.65 -24.4 24.95 -24.15 L25.85 -24.25 26.9 -25.25 Q27.4 -25.95 27.5 -26.6 M36.75 -20.05 L36.75 -12.9 Q36.2 -10.95 35.1 -9.25 L34.05 -7.75 33.7 -7.5 25.85 -1.6 Q24.3 -1.6 23.3 -2.25 L22.75 -2.65 22.75 -9.45 Q23.65 -12.45 26.2 -14.9 L33.35 -20.4 Q35.1 -21.25 36.75 -20.05 M36.75 -6.05 L36.75 1.1 Q36.2 3.05 35.1 4.75 L34.05 6.25 33.7 6.5 25.85 12.4 Q24.3 12.4 23.3 11.75 L22.75 11.35 22.75 4.55 Q23.65 1.55 26.2 -0.9 L33.35 -6.4 Q35.1 -7.25 36.75 -6.05 M36.75 7.95 L36.75 15.1 Q35.9 17.95 34.05 20.25 L25.85 26.4 Q23.85 26.4 22.75 25.35 L22.75 18.55 Q23.65 15.55 26.2 13.1 L33.35 7.6 Q35.1 6.75 36.75 7.95 M34.25 -18.7 L33.35 -18.6 Q32.75 -18.25 32.3 -17.55 31.8 -16.9 31.7 -16.25 31.55 -15.6 31.9 -15.4 L32.8 -15.5 33.85 -16.5 34.45 -17.85 Q34.55 -18.5 34.25 -18.7 M26.45 -20.8 Q25.85 -20.45 25.4 -19.75 24.9 -19.1 24.8 -18.45 24.65 -17.8 25.0 -17.55 L25.9 -17.65 26.95 -18.7 27.55 -20.0 Q27.65 -20.65 27.35 -20.9 L26.45 -20.8 M27.35 -6.9 L26.45 -6.8 Q25.85 -6.45 25.4 -5.75 24.9 -5.1 24.8 -4.45 24.65 -3.8 25.0 -3.55 L25.9 -3.65 26.95 -4.7 27.55 -6.0 Q27.65 -6.65 27.35 -6.9 M27.5 -12.6 Q27.6 -13.25 27.3 -13.45 L26.4 -13.35 25.35 -12.35 Q24.85 -11.65 24.75 -11.0 24.65 -10.4 24.95 -10.15 L25.85 -10.25 26.9 -11.25 Q27.4 -11.95 27.5 -12.6 M34.5 -11.3 Q34.6 -11.95 34.3 -12.15 L33.4 -12.05 32.35 -11.05 Q31.85 -10.4 31.75 -9.7 31.65 -9.1 31.95 -8.85 L32.85 -8.95 33.9 -9.95 Q34.4 -10.65 34.5 -11.3 M32.3 -3.55 Q31.8 -2.9 31.7 -2.25 31.55 -1.6 31.9 -1.4 L32.8 -1.5 33.85 -2.5 34.45 -3.85 Q34.55 -4.5 34.25 -4.7 L33.35 -4.6 Q32.75 -4.25 32.3 -3.55 M33.35 9.4 Q32.75 9.75 32.3 10.45 31.8 11.1 31.7 11.75 31.55 12.4 31.9 12.6 L32.8 12.5 33.85 11.5 34.45 10.15 Q34.55 9.5 34.25 9.3 L33.35 9.4 M34.5 2.7 Q34.6 2.05 34.3 1.85 L33.4 1.95 32.35 2.95 Q31.85 3.6 31.75 4.3 31.65 4.9 31.95 5.15 L32.85 5.05 33.9 4.05 Q34.4 3.35 34.5 2.7 M27.3 0.55 L26.4 0.65 25.35 1.65 Q24.85 2.35 24.75 3.0 24.65 3.6 24.95 3.85 L25.85 3.75 26.9 2.75 Q27.4 2.05 27.5 1.4 27.6 0.75 27.3 0.55 M24.8 9.55 Q24.65 10.2 25.0 10.45 L25.9 10.35 26.95 9.3 27.55 8.0 Q27.65 7.35 27.35 7.1 L26.45 7.2 Q25.85 7.55 25.4 8.25 24.9 8.9 24.8 9.55 M24.8 23.55 Q24.65 24.2 25.0 24.45 L25.9 24.35 26.95 23.3 27.55 22.0 Q27.65 21.35 27.35 21.1 L26.45 21.2 Q25.85 21.55 25.4 22.25 24.9 22.9 24.8 23.55 M26.4 14.65 L25.35 15.65 Q24.85 16.35 24.75 17.0 24.65 17.6 24.95 17.85 L25.85 17.75 26.9 16.75 Q27.4 16.05 27.5 15.4 27.6 14.75 27.3 14.55 L26.4 14.65 M34.5 16.7 Q34.6 16.05 34.3 15.85 L33.4 15.95 32.35 16.95 Q31.85 17.6 31.75 18.3 31.65 18.9 31.95 19.15 L32.85 19.05 33.9 18.05 Q34.4 17.35 34.5 16.7" fill="#003737" fill-rule="evenodd" stroke="none" />
      <path d="M19.35 -28.9 L21.3 -28.65 25.25 -28.75 26.2 -28.9 Q23.65 -26.45 22.75 -23.45 21.7 -26.7 19.35 -28.9 M19.35 -14.9 L21.3 -14.65 25.25 -14.75 26.2 -14.9 Q23.65 -12.45 22.75 -9.45 21.7 -12.7 19.35 -14.9 M19.35 -0.9 L21.3 -0.65 25.25 -0.75 26.2 -0.9 Q23.65 1.55 22.75 4.55 21.7 1.3 19.35 -0.9 M19.35 13.1 Q22.75 13.75 26.2 13.1 23.65 15.55 22.75 18.55 21.7 15.3 19.35 13.1" fill="#39ffff" fill-rule="evenodd" stroke="none" />
      <path d="M12.5 -39.85 Q11.15 -36.6 12.5 -34.05 10.5 -34.8 8.75 -33.7 10.2 -37.3 12.5 -39.85 M8.75 8.3 L10.55 4.75 12.05 6.75 Q12.2 7.35 12.5 7.95 10.5 7.2 8.75 8.3 M8.75 -5.7 L10.55 -9.25 12.05 -7.25 Q12.2 -6.65 12.5 -6.05 10.5 -6.8 8.75 -5.7 M8.75 -19.7 L10.55 -23.25 12.05 -21.25 Q12.2 -20.65 12.5 -20.05 10.5 -20.8 8.75 -19.7" fill="#00d0d0" fill-rule="evenodd" stroke="none" />
      <path d="M12.5 -34.05 L19.35 -28.9 Q21.7 -26.7 22.75 -23.45 L22.75 -16.65 21.6 -15.85 19.7 -15.6 12.2 -21.1 12.05 -21.25 10.55 -23.25 Q9.45 -24.9 8.75 -26.9 L8.75 -33.7 Q10.5 -34.8 12.5 -34.05 M19.7 26.4 L12.2 20.9 Q9.95 18.4 8.75 15.1 L8.75 8.3 Q10.5 7.2 12.5 7.95 L19.35 13.1 Q21.7 15.3 22.75 18.55 L22.75 25.35 Q21.8 26.5 19.7 26.4 M10.55 4.75 Q9.45 3.1 8.75 1.1 L8.75 -5.7 Q10.5 -6.8 12.5 -6.05 L19.35 -0.9 Q21.7 1.3 22.75 4.55 L22.75 11.35 21.6 12.15 19.7 12.4 12.2 6.9 12.05 6.75 10.55 4.75 M10.55 -9.25 Q9.45 -10.9 8.75 -12.9 L8.75 -19.7 Q10.5 -20.8 12.5 -20.05 L19.35 -14.9 Q21.7 -12.7 22.75 -9.45 L22.75 -2.65 21.6 -1.85 19.7 -1.6 12.2 -7.1 12.05 -7.25 10.55 -9.25 M19.65 -26.6 L18.05 -28.0 16.75 -28.05 Q16.25 -27.7 16.45 -26.75 16.6 -25.8 17.35 -24.85 18.05 -23.9 18.9 -23.45 L20.25 -23.4 Q20.75 -23.8 20.55 -24.7 20.4 -25.65 19.65 -26.6 M11.1 -26.95 Q10.6 -26.6 10.8 -25.65 10.95 -24.75 11.7 -23.75 12.4 -22.8 13.3 -22.4 L14.65 -22.35 Q15.1 -22.7 14.95 -23.65 14.75 -24.6 14.05 -25.55 L12.45 -26.9 11.1 -26.95 M18.05 -14.0 L16.75 -14.05 Q16.25 -13.7 16.45 -12.75 16.6 -11.8 17.35 -10.85 18.05 -9.9 18.9 -9.45 L20.25 -9.4 Q20.75 -9.8 20.55 -10.7 20.4 -11.65 19.65 -12.6 L18.05 -14.0 M12.45 -12.9 L11.1 -12.95 Q10.6 -12.6 10.8 -11.65 10.95 -10.75 11.7 -9.75 12.4 -8.8 13.3 -8.4 L14.65 -8.35 Q15.1 -8.7 14.95 -9.65 14.75 -10.6 14.05 -11.55 L12.45 -12.9 M20.25 4.6 Q20.75 4.2 20.55 3.3 20.4 2.35 19.65 1.4 L18.05 0.0 16.75 -0.05 Q16.25 0.3 16.45 1.25 16.6 2.2 17.35 3.15 18.05 4.1 18.9 4.55 L20.25 4.6 M20.25 18.6 Q20.75 18.2 20.55 17.3 20.4 16.35 19.65 15.4 L18.05 14.0 16.75 13.95 Q16.25 14.3 16.45 15.25 16.6 16.2 17.35 17.15 18.05 18.1 18.9 18.55 L20.25 18.6 M10.8 2.35 Q10.95 3.25 11.7 4.25 L13.3 5.6 14.65 5.65 Q15.1 5.3 14.95 4.35 14.75 3.4 14.05 2.45 13.3 1.5 12.45 1.1 L11.1 1.05 Q10.6 1.4 10.8 2.35 M14.95 18.35 Q14.75 17.4 14.05 16.45 13.3 15.5 12.45 15.1 L11.1 15.05 Q10.6 15.4 10.8 16.35 10.95 17.25 11.7 18.25 L13.3 19.6 14.65 19.65 Q15.1 19.3 14.95 18.35" fill="#009494" fill-rule="evenodd" stroke="none" />
      <path d="M25.85 26.4 Q22.75 26.9 19.7 26.4 21.8 26.5 22.75 25.35 23.85 26.4 25.85 26.4 M25.85 -15.6 Q22.75 -15.1 19.7 -15.6 L21.6 -15.85 22.75 -16.65 23.3 -16.25 Q24.3 -15.6 25.85 -15.6 M25.85 -1.6 Q22.75 -1.1 19.7 -1.6 L21.6 -1.85 22.75 -2.65 23.3 -2.25 Q24.3 -1.6 25.85 -1.6 M25.85 12.4 Q22.75 12.9 19.7 12.4 L21.6 12.15 22.75 11.35 23.3 11.75 Q24.3 12.4 25.85 12.4" fill="#002020" fill-rule="evenodd" stroke="none" />
      <path d="M32.35 -37.5 Q32.35 -36.9 31.75 -36.45 31.15 -36.05 30.35 -36.0 29.55 -36.05 28.95 -36.45 28.35 -36.9 28.4 -37.5 28.35 -38.15 28.95 -38.55 29.55 -39.0 30.35 -39.0 31.15 -39.0 31.75 -38.55 32.35 -38.15 32.35 -37.5 M24.7 -43.6 L25.3 -42.55 Q25.25 -41.95 24.7 -41.5 24.1 -41.1 23.3 -41.05 22.45 -41.1 21.9 -41.5 21.3 -41.95 21.3 -42.55 21.3 -43.2 21.9 -43.6 22.45 -44.05 23.3 -44.05 24.1 -44.05 24.7 -43.6 M20.55 -38.45 Q19.95 -38.05 19.15 -38.05 L17.75 -38.45 Q17.15 -38.9 17.2 -39.5 17.15 -40.15 17.75 -40.55 18.35 -41.0 19.15 -41.0 19.95 -41.0 20.55 -40.55 21.15 -40.15 21.15 -39.5 21.15 -38.9 20.55 -38.45 M28.1 -34.45 Q28.1 -33.85 27.55 -33.4 26.95 -32.95 26.15 -32.95 25.3 -32.95 24.75 -33.4 24.15 -33.85 24.15 -34.45 24.15 -35.05 24.75 -35.5 L26.15 -35.9 Q26.95 -35.95 27.55 -35.5 28.1 -35.05 28.1 -34.45 M23.35 -32.35 Q23.9 -31.9 23.9 -31.3 23.9 -30.7 23.35 -30.25 22.75 -29.85 21.95 -29.8 21.1 -29.85 20.55 -30.25 19.95 -30.7 19.95 -31.3 19.95 -31.9 20.55 -32.35 21.1 -32.8 21.95 -32.8 22.75 -32.8 23.35 -32.35 M27.5 -26.6 Q27.4 -25.95 26.9 -25.25 L25.85 -24.25 24.95 -24.15 Q24.65 -24.4 24.75 -25.0 24.85 -25.65 25.35 -26.35 L26.4 -27.35 27.3 -27.45 Q27.6 -27.25 27.5 -26.6 M33.35 -32.6 L34.25 -32.7 Q34.55 -32.5 34.45 -31.85 L33.85 -30.5 32.8 -29.5 31.9 -29.4 Q31.55 -29.6 31.7 -30.25 31.8 -30.9 32.3 -31.55 32.75 -32.25 33.35 -32.6 M34.3 -26.15 Q34.6 -25.95 34.5 -25.3 34.4 -24.65 33.9 -23.95 L32.85 -22.95 31.95 -22.85 Q31.65 -23.1 31.75 -23.7 31.85 -24.4 32.35 -25.05 L33.4 -26.05 34.3 -26.15 M16.4 -37.5 Q16.95 -37.05 17.0 -36.45 16.95 -35.85 16.4 -35.4 15.8 -34.95 15.0 -34.95 14.15 -34.95 13.6 -35.4 13.0 -35.85 13.0 -36.45 13.0 -37.05 13.6 -37.5 14.15 -37.95 15.0 -37.95 15.8 -37.95 16.4 -37.5 M11.1 -26.95 L12.45 -26.9 14.05 -25.55 Q14.75 -24.6 14.95 -23.65 15.1 -22.7 14.65 -22.35 L13.3 -22.4 Q12.4 -22.8 11.7 -23.75 10.95 -24.75 10.8 -25.65 10.6 -26.6 11.1 -26.95 M19.65 -26.6 Q20.4 -25.65 20.55 -24.7 20.75 -23.8 20.25 -23.4 L18.9 -23.45 Q18.05 -23.9 17.35 -24.85 16.6 -25.8 16.45 -26.75 16.25 -27.7 16.75 -28.05 L18.05 -28.0 19.65 -26.6 M12.45 -12.9 L14.05 -11.55 Q14.75 -10.6 14.95 -9.65 15.1 -8.7 14.65 -8.35 L13.3 -8.4 Q12.4 -8.8 11.7 -9.75 10.95 -10.75 10.8 -11.65 10.6 -12.6 11.1 -12.95 L12.45 -12.9 M18.05 -14.0 L19.65 -12.6 Q20.4 -11.65 20.55 -10.7 20.75 -9.8 20.25 -9.4 L18.9 -9.45 Q18.05 -9.9 17.35 -10.85 16.6 -11.8 16.45 -12.75 16.25 -13.7 16.75 -14.05 L18.05 -14.0 M34.25 -18.7 Q34.55 -18.5 34.45 -17.85 L33.85 -16.5 32.8 -15.5 31.9 -15.4 Q31.55 -15.6 31.7 -16.25 31.8 -16.9 32.3 -17.55 32.75 -18.25 33.35 -18.6 L34.25 -18.7 M26.45 -20.8 L27.35 -20.9 Q27.65 -20.65 27.55 -20.0 L26.95 -18.7 25.9 -17.65 25.0 -17.55 Q24.65 -17.8 24.8 -18.45 24.9 -19.1 25.4 -19.75 25.85 -20.45 26.45 -20.8 M27.5 -12.6 Q27.4 -11.95 26.9 -11.25 L25.85 -10.25 24.95 -10.15 Q24.65 -10.4 24.75 -11.0 24.85 -11.65 25.35 -12.35 L26.4 -13.35 27.3 -13.45 Q27.6 -13.25 27.5 -12.6 M27.35 -6.9 Q27.65 -6.65 27.55 -6.0 L26.95 -4.7 25.9 -3.65 25.0 -3.55 Q24.65 -3.8 24.8 -4.45 24.9 -5.1 25.4 -5.75 25.85 -6.45 26.45 -6.8 L27.35 -6.9 M34.5 -11.3 Q34.4 -10.65 33.9 -9.95 L32.85 -8.95 31.95 -8.85 Q31.65 -9.1 31.75 -9.7 31.85 -10.4 32.35 -11.05 L33.4 -12.05 34.3 -12.15 Q34.6 -11.95 34.5 -11.3 M32.3 -3.55 Q32.75 -4.25 33.35 -4.6 L34.25 -4.7 Q34.55 -4.5 34.45 -3.85 L33.85 -2.5 32.8 -1.5 31.9 -1.4 Q31.55 -1.6 31.7 -2.25 31.8 -2.9 32.3 -3.55 M34.5 2.7 Q34.4 3.35 33.9 4.05 L32.85 5.05 31.95 5.15 Q31.65 4.9 31.75 4.3 31.85 3.6 32.35 2.95 L33.4 1.95 34.3 1.85 Q34.6 2.05 34.5 2.7 M33.35 9.4 L34.25 9.3 Q34.55 9.5 34.45 10.15 L33.85 11.5 32.8 12.5 31.9 12.6 Q31.55 12.4 31.7 11.75 31.8 11.1 32.3 10.45 32.75 9.75 33.35 9.4 M27.3 0.55 Q27.6 0.75 27.5 1.4 27.4 2.05 26.9 2.75 L25.85 3.75 24.95 3.85 Q24.65 3.6 24.75 3.0 24.85 2.35 25.35 1.65 L26.4 0.65 27.3 0.55 M20.25 4.6 L18.9 4.55 Q18.05 4.1 17.35 3.15 16.6 2.2 16.45 1.25 16.25 0.3 16.75 -0.05 L18.05 0.0 19.65 1.4 Q20.4 2.35 20.55 3.3 20.75 4.2 20.25 4.6 M24.8 9.55 Q24.9 8.9 25.4 8.25 25.85 7.55 26.45 7.2 L27.35 7.1 Q27.65 7.35 27.55 8.0 L26.95 9.3 25.9 10.35 25.0 10.45 Q24.65 10.2 24.8 9.55 M26.4 14.65 L27.3 14.55 Q27.6 14.75 27.5 15.4 27.4 16.05 26.9 16.75 L25.85 17.75 24.95 17.85 Q24.65 17.6 24.75 17.0 24.85 16.35 25.35 15.65 L26.4 14.65 M24.8 23.55 Q24.9 22.9 25.4 22.25 25.85 21.55 26.45 21.2 L27.35 21.1 Q27.65 21.35 27.55 22.0 L26.95 23.3 25.9 24.35 25.0 24.45 Q24.65 24.2 24.8 23.55 M20.25 18.6 L18.9 18.55 Q18.05 18.1 17.35 17.15 16.6 16.2 16.45 15.25 16.25 14.3 16.75 13.95 L18.05 14.0 19.65 15.4 Q20.4 16.35 20.55 17.3 20.75 18.2 20.25 18.6 M34.5 16.7 Q34.4 17.35 33.9 18.05 L32.85 19.05 31.95 19.15 Q31.65 18.9 31.75 18.3 31.85 17.6 32.35 16.95 L33.4 15.95 34.3 15.85 Q34.6 16.05 34.5 16.7 M10.8 2.35 Q10.6 1.4 11.1 1.05 L12.45 1.1 Q13.3 1.5 14.05 2.45 14.75 3.4 14.95 4.35 15.1 5.3 14.65 5.65 L13.3 5.6 11.7 4.25 Q10.95 3.25 10.8 2.35 M14.95 18.35 Q15.1 19.3 14.65 19.65 L13.3 19.6 11.7 18.25 Q10.95 17.25 10.8 16.35 10.6 15.4 11.1 15.05 L12.45 15.1 Q13.3 15.5 14.05 16.45 14.75 17.4 14.95 18.35" fill="#000000" fill-rule="evenodd" stroke="none" />
    </g>
  </defs>
</svg>