<?xml version='1.0' encoding='utf-8'?>
<svg xmlns="http://www.w3.org/2000/svg" xmlns:xlink="http://www.w3.org/1999/xlink" height="81.8px" width="70.65px" viewBox="-11.5 -53.05 70.65 81.8">
  <g>
    <use height="32.05" transform="matrix(1.0, 0.0, 0.0, 1.0, 0.0, 0.0)" width="41.4" xlink:href="#shape0" />
  </g>
  <defs>
    <g id="shape0">
      <path d="M49.7 20.55 Q47.55 23.35 44.5 25.8 42.35 27.6 38.0 28.6 L38.0 28.75 25.5 28.75 25.35 28.75 19.35 26.75 19.2 26.65 12.2 21.65 12.15 21.6 11.15 20.6 11.0 20.35 Q10.95 20.15 11.05 20.05 L11.3 19.8 26.0 12.45 26.0 9.45 27.3 8.8 27.5 8.75 38.0 8.75 38.0 8.85 Q40.75 9.2 43.9 10.65 47.1 13.35 49.7 16.45 50.65 18.5 49.7 20.55" fill="#000000" fill-opacity="0.9137255" fill-rule="evenodd" stroke="none" />
      <path d="M12.5 2.15 L19.0 -2.6 Q22.5 -3.95 26.5 -2.6 L33.35 2.5 Q34.3 5.3 33.35 7.6 L26.2 13.1 Q22.75 13.75 19.35 13.1 L12.5 7.95 Q11.15 5.4 12.5 2.15 M31.05 6.2 Q31.65 5.75 31.65 5.2 31.65 4.55 31.05 4.15 30.45 3.7 29.65 3.75 28.85 3.7 28.25 4.15 27.7 4.55 27.7 5.2 27.7 5.75 28.25 6.2 28.85 6.6 29.65 6.65 L31.05 6.2 M24.1 -1.0 L22.7 -1.4 Q21.85 -1.4 21.3 -1.0 20.75 -0.55 20.75 0.05 20.75 0.65 21.3 1.05 21.85 1.5 22.7 1.5 23.5 1.5 24.1 1.05 24.65 0.65 24.65 0.05 24.65 -0.55 24.1 -1.0 M22.75 9.0 Q21.9 9.0 21.35 9.4 20.75 9.85 20.75 10.45 20.75 11.05 21.35 11.45 21.9 11.9 22.75 11.9 L24.1 11.45 Q24.7 11.05 24.7 10.45 24.7 9.85 24.1 9.4 23.55 9.0 22.75 9.0 M22.75 3.75 Q21.9 3.7 21.35 4.15 20.75 4.55 20.75 5.2 20.75 5.75 21.35 6.2 21.9 6.6 22.75 6.65 L24.1 6.2 Q24.7 5.75 24.7 5.2 24.7 4.55 24.1 4.15 23.55 3.7 22.75 3.75 M17.15 6.2 Q17.75 5.75 17.75 5.2 17.75 4.55 17.15 4.15 16.55 3.7 15.75 3.75 14.95 3.7 14.35 4.15 13.8 4.55 13.8 5.2 13.8 5.75 14.35 6.2 L15.75 6.65 Q16.55 6.6 17.15 6.2" fill="#e67f02" fill-rule="evenodd" stroke="none" />
      <path d="M33.35 2.5 Q35.45 4.7 36.75 7.95 35.1 6.75 33.35 7.6 34.3 5.3 33.35 2.5" fill="#6e3c00" fill-rule="evenodd" stroke="none" />
      <path d="M36.75 7.95 L36.75 15.1 Q35.9 17.95 34.05 20.25 L25.85 26.4 Q23.85 26.4 22.75 25.35 L22.75 18.55 Q23.65 15.55 26.2 13.1 L33.35 7.6 Q35.1 6.75 36.75 7.95 M32.45 9.9 Q31.95 10.55 31.8 11.2 31.65 11.8 32.0 12.05 L32.9 12.0 Q33.45 11.7 34.0 11.05 L34.65 9.75 Q34.75 9.1 34.45 8.85 L33.55 8.9 32.45 9.9 M27.0 16.1 L27.65 14.8 Q27.8 14.15 27.5 13.95 L26.6 14.0 25.5 14.95 Q24.95 15.6 24.85 16.25 24.7 16.9 25.0 17.15 L25.9 17.1 27.0 16.1 M27.4 17.9 L26.5 17.95 Q25.9 18.25 25.4 18.9 24.9 19.55 24.8 20.2 24.65 20.85 24.95 21.1 L25.85 21.05 26.95 20.1 27.6 18.75 Q27.75 18.1 27.4 17.9 M27.0 24.0 L27.65 22.7 Q27.8 22.05 27.5 21.8 L26.6 21.85 Q26.0 22.15 25.5 22.85 24.95 23.5 24.85 24.1 24.7 24.75 25.0 25.0 L25.9 24.95 Q26.5 24.65 27.0 24.0 M34.5 16.65 L33.6 16.7 32.5 17.7 Q32.0 18.35 31.85 19.0 31.7 19.6 32.05 19.85 L32.95 19.8 34.05 18.85 34.7 17.55 Q34.8 16.9 34.5 16.65 M34.5 12.7 L33.6 12.75 32.5 13.75 Q32.0 14.4 31.85 15.05 31.7 15.65 32.05 15.9 L32.95 15.85 34.05 14.9 34.7 13.6 Q34.8 12.95 34.5 12.7" fill="#371e00" fill-rule="evenodd" stroke="none" />
      <path d="M19.35 13.1 Q22.75 13.75 26.2 13.1 23.65 15.55 22.75 18.55 21.7 15.3 19.35 13.1" fill="#ffb132" fill-rule="evenodd" stroke="none" />
      <path d="M8.75 8.3 Q10.2 4.7 12.5 2.15 11.15 5.4 12.5 7.95 10.5 7.2 8.75 8.3" fill="#d07200" fill-rule="evenodd" stroke="none" />
      <path d="M19.7 26.4 L12.2 20.9 Q9.95 18.4 8.75 15.1 L8.75 8.3 Q10.5 7.2 12.5 7.95 L19.35 13.1 Q21.7 15.3 22.75 18.55 L22.75 25.35 Q21.8 26.5 19.7 26.4 M20.55 17.95 Q20.9 17.65 20.8 17.0 L20.15 15.6 19.0 14.6 18.05 14.55 Q17.65 14.8 17.8 15.5 17.9 16.15 18.45 16.9 18.95 17.6 19.6 17.9 L20.55 17.95 M11.0 16.0 Q10.65 16.25 10.75 16.95 10.85 17.65 11.4 18.35 11.9 19.05 12.55 19.4 13.15 19.65 13.55 19.4 13.85 19.15 13.75 18.45 13.65 17.75 13.15 17.1 L12.0 16.05 11.0 16.0 M17.25 17.7 L16.6 16.35 Q16.1 15.6 15.45 15.3 L14.5 15.25 Q14.1 15.5 14.25 16.2 14.35 16.9 14.9 17.6 15.4 18.3 16.0 18.6 L17.0 18.65 Q17.35 18.4 17.25 17.7" fill="#945100" fill-rule="evenodd" stroke="none" />
      <path d="M25.85 26.4 Q22.75 26.9 19.7 26.4 21.8 26.5 22.75 25.35 23.85 26.4 25.85 26.4" fill="#130b00" fill-rule="evenodd" stroke="none" />
      <path d="M24.1 -1.0 Q24.65 -0.55 24.65 0.05 24.65 0.65 24.1 1.05 23.5 1.5 22.7 1.5 21.85 1.5 21.3 1.05 20.75 0.65 20.75 0.05 20.75 -0.55 21.3 -1.0 21.85 -1.4 22.7 -1.4 L24.1 -1.0 M31.05 6.2 L29.65 6.65 Q28.85 6.6 28.25 6.2 27.7 5.75 27.7 5.2 27.7 4.55 28.25 4.15 28.85 3.7 29.65 3.75 30.45 3.7 31.05 4.15 31.65 4.55 31.65 5.2 31.65 5.75 31.05 6.2 M32.45 9.9 L33.55 8.9 34.45 8.85 Q34.75 9.1 34.65 9.75 L34.0 11.05 Q33.45 11.7 32.9 12.0 L32.0 12.05 Q31.65 11.8 31.8 11.2 31.95 10.55 32.45 9.9 M22.75 3.75 Q23.55 3.7 24.1 4.15 24.7 4.55 24.7 5.2 24.7 5.75 24.1 6.2 L22.75 6.65 Q21.9 6.6 21.35 6.2 20.75 5.75 20.75 5.2 20.75 4.55 21.35 4.15 21.9 3.7 22.75 3.75 M22.75 9.0 Q23.55 9.0 24.1 9.4 24.7 9.85 24.7 10.45 24.7 11.05 24.1 11.45 L22.75 11.9 Q21.9 11.9 21.35 11.45 20.75 11.05 20.75 10.45 20.75 9.85 21.35 9.4 21.9 9.0 22.75 9.0 M27.4 17.9 Q27.75 18.1 27.6 18.75 L26.95 20.1 25.85 21.05 24.95 21.1 Q24.65 20.85 24.8 20.2 24.9 19.55 25.4 18.9 25.9 18.25 26.5 17.95 L27.4 17.9 M27.0 16.1 L25.9 17.1 25.0 17.15 Q24.7 16.9 24.85 16.25 24.95 15.6 25.5 14.95 L26.6 14.0 27.5 13.95 Q27.8 14.15 27.65 14.8 L27.0 16.1 M20.55 17.95 L19.6 17.9 Q18.95 17.6 18.45 16.9 17.9 16.15 17.8 15.5 17.65 14.8 18.05 14.55 L19.0 14.6 20.15 15.6 20.8 17.0 Q20.9 17.65 20.55 17.95 M27.0 24.0 Q26.5 24.65 25.9 24.95 L25.0 25.0 Q24.7 24.75 24.85 24.1 24.95 23.5 25.5 22.85 26.0 22.15 26.6 21.85 L27.5 21.8 Q27.8 22.05 27.65 22.7 L27.0 24.0 M34.5 12.7 Q34.8 12.95 34.7 13.6 L34.05 14.9 32.95 15.85 32.05 15.9 Q31.7 15.65 31.85 15.05 32.0 14.4 32.5 13.75 L33.6 12.75 34.5 12.7 M34.5 16.65 Q34.8 16.9 34.7 17.55 L34.05 18.85 32.95 19.8 32.05 19.85 Q31.7 19.6 31.85 19.0 32.0 18.35 32.5 17.7 L33.6 16.7 34.5 16.65 M17.15 6.2 Q16.55 6.6 15.75 6.65 L14.35 6.2 Q13.8 5.75 13.8 5.2 13.8 4.55 14.35 4.15 14.95 3.7 15.75 3.75 16.55 3.7 17.15 4.15 17.75 4.55 17.75 5.2 17.75 5.75 17.15 6.2 M17.25 17.7 Q17.35 18.4 17.0 18.65 L16.0 18.6 Q15.4 18.3 14.9 17.6 14.35 16.9 14.25 16.2 14.1 15.5 14.5 15.25 L15.45 15.3 Q16.1 15.6 16.6 16.35 L17.25 17.7 M11.0 16.0 L12.0 16.05 13.15 17.1 Q13.65 17.75 13.75 18.45 13.85 19.15 13.55 19.4 13.15 19.65 12.55 19.4 11.9 19.05 11.4 18.35 10.85 17.65 10.75 16.95 10.65 16.25 11.0 16.0" fill="#000000" fill-rule="evenodd" stroke="none" />
    </g>
  </defs>
</svg>