<?xml version='1.0' encoding='utf-8'?>
<svg xmlns="http://www.w3.org/2000/svg" xmlns:ns1="https://www.free-decompiler.com/flash" xmlns:xlink="http://www.w3.org/1999/xlink" width="800" height="600" viewBox="0 0 800 600"><rect width="100%" height="100%" fill="white" /><g transform="matrix(1,0,0,1,0,0)">
    <use ns1:characterId="43" height="350.85" id="s147-dice0_0" transform="matrix(0.0999, 0.0, 0.0, 0.0998, 426.35, 502.65)" width="328.0" xlink:href="#s147-sprite0" />
    <use ns1:characterId="43" height="350.85" id="s147-dice0_1" transform="matrix(0.0999, 0.0, 0.0, 0.0998, 461.35, 502.65)" width="328.0" xlink:href="#s147-sprite0" />
    <use ns1:characterId="43" height="350.85" id="s147-dice0_2" transform="matrix(0.0999, 0.0, 0.0, 0.0998, 496.35, 502.65)" width="328.0" xlink:href="#s147-sprite0" />
    <use ns1:characterId="43" height="350.85" id="s147-dice0_3" transform="matrix(0.0999, 0.0, 0.0, 0.0999, 531.35, 502.65)" width="328.0" xlink:href="#s147-sprite0" />
    <use ns1:characterId="43" height="350.85" id="s147-dice0_4" transform="matrix(0.0999, 0.0, 0.0, 0.0999, 566.35, 502.65)" width="328.0" xlink:href="#s147-sprite0" />
    <use ns1:characterId="43" height="350.85" id="s147-dice0_5" transform="matrix(0.0999, 0.0, 0.0, 0.0999, 601.35, 502.65)" width="328.0" xlink:href="#s147-sprite0" />
    <use ns1:characterId="43" height="350.85" id="s147-dice0_6" transform="matrix(0.0999, 0.0, 0.0, 0.0999, 636.35, 502.65)" width="328.0" xlink:href="#s147-sprite0" />
    <use ns1:characterId="43" height="350.85" id="s147-dice0_7" transform="matrix(0.0999, 0.0, 0.0, 0.0998, 671.35, 502.65)" width="328.0" xlink:href="#s147-sprite0" />
    <use ns1:characterId="43" height="350.85" id="s147-dice1_7" transform="matrix(0.0999, 0.0, 0.0, 0.0996, 125.0, 502.65)" width="328.0" xlink:href="#s147-sprite0" />
    <use ns1:characterId="43" height="350.85" id="s147-dice1_6" transform="matrix(0.0999, 0.0, 0.0, 0.0996, 160.0, 502.65)" width="328.0" xlink:href="#s147-sprite0" />
    <use ns1:characterId="43" height="350.85" id="s147-dice1_5" transform="matrix(0.0999, 0.0, 0.0, 0.0996, 195.0, 502.65)" width="328.0" xlink:href="#s147-sprite0" />
    <use ns1:characterId="43" height="350.85" id="s147-dice1_4" transform="matrix(0.0999, 0.0, 0.0, 0.0998, 230.0, 502.65)" width="328.0" xlink:href="#s147-sprite0" />
    <use ns1:characterId="43" height="350.85" id="s147-dice1_3" transform="matrix(0.0999, 0.0, 0.0, 0.0998, 265.0, 502.65)" width="328.0" xlink:href="#s147-sprite0" />
    <use ns1:characterId="43" height="350.85" id="s147-dice1_2" transform="matrix(0.0999, 0.0, 0.0, 0.0998, 300.0, 502.65)" width="328.0" xlink:href="#s147-sprite0" />
    <use ns1:characterId="43" height="350.85" id="s147-dice1_1" transform="matrix(0.0999, 0.0, 0.0, 0.0998, 334.95, 502.65)" width="328.0" xlink:href="#s147-sprite0" />
    <use ns1:characterId="43" height="350.85" id="s147-dice1_0" transform="matrix(0.0999, 0.0, 0.0, 0.0996, 369.95, 502.65)" width="328.0" xlink:href="#s147-sprite0" />
    <use ns1:characterId="145" height="57.4" id="s147-tf0" transform="matrix(0.9985, 0.0, 0.0, 1.0, 634.9, 477.0)" width="51.3" xlink:href="#s147-text0" />
    <use ns1:characterId="146" height="57.4" id="s147-tf1" transform="matrix(0.9985, 0.0, 0.0, 1.0, -10.45, 477.0)" width="55.7" xlink:href="#s147-text1" />
  </g>
  <defs>
    <g id="s147-sprite0">
      <use ns1:characterId="23" height="350.85" transform="matrix(1.0, 0.0, 0.0, 1.0, 0.0, 0.0)" width="328.0" xlink:href="#s147-shape0" />
      <use ns1:characterId="24" height="280.85" transform="matrix(1.0, 0.0, 0.0, 1.0, 0.0, 0.0)" width="277.4" xlink:href="#s147-shape1" />
    </g>
    <g id="s147-shape0">
      <path d="M124.0 -109.15 Q135.6 -76.05 124.0 -49.15 L40.0 14.85 Q0.0 22.75 -40.0 14.85 L-120.0 -45.15 Q-135.6 -75.25 -120.0 -113.15 L-44.0 -169.15 Q-3.2 -184.55 44.0 -169.15 L124.0 -109.15" fill="#7502e6" fill-rule="evenodd" stroke="none" />
      <path d="M-120.0 -45.15 L-40.0 14.85 Q-12.35 40.7 0.0 78.85 L0.0 158.85 Q-11.1 172.5 -36.0 170.85 L-124.0 106.85 Q-150.25 77.55 -164.0 38.85 L-164.0 -41.15 Q-143.6 -54.25 -120.0 -45.15" fill="#4a0094" fill-rule="evenodd" stroke="none" />
      <path d="M124.0 -49.15 Q144.8 -59.05 164.0 -45.15 L164.0 38.85 Q154.2 71.95 132.0 98.85 L36.0 170.85 Q12.65 170.95 0.0 158.85 L0.0 78.85 Q10.4 43.65 40.0 14.85 L124.0 -49.15" fill="#1c0037" fill-rule="evenodd" stroke="none" />
      <path d="M-40.0 14.85 Q0.0 22.75 40.0 14.85 10.4 43.65 0.0 78.85 -12.35 40.7 -40.0 14.85" fill="#b544ff" fill-rule="evenodd" stroke="none" />
      <path d="M124.0 -49.15 Q135.6 -76.05 124.0 -109.15 148.75 -83.5 164.0 -45.15 144.8 -59.05 124.0 -49.15" fill="#330067" fill-rule="evenodd" stroke="none" />
      <path d="M-120.0 -113.15 Q-135.6 -75.25 -120.0 -45.15 -143.6 -54.25 -164.0 -41.15 -146.75 -83.45 -120.0 -113.15" fill="#6500c9" fill-rule="evenodd" stroke="none" />
      <path d="M0.0 158.85 Q12.65 170.95 36.0 170.85 0.0 177.2 -36.0 170.85 -11.1 172.5 0.0 158.85" fill="#0a0013" fill-rule="evenodd" stroke="none" />
    </g>
    <g id="s147-shape1">
      <path d="M51.05 -117.5 Q72.0 -101.55 72.05 -78.95 72.0 -56.4 51.05 -40.45 30.15 -24.5 0.5 -24.45 -29.1 -24.5 -50.05 -40.45 -71.0 -56.4 -71.0 -78.95 -71.0 -101.55 -50.05 -117.5 -29.1 -133.45 0.5 -133.45 30.15 -133.45 51.05 -117.5" fill="#ffffff" fill-rule="evenodd" stroke="none" />
      <path d="M-138.65 -17.5 Q-139.8 -25.05 -135.6 -28.3 -131.45 -31.6 -124.35 -28.75 -117.35 -25.85 -111.55 -18.5 -105.8 -11.15 -104.7 -3.65 -103.6 3.9 -107.8 7.2 -111.95 10.45 -119.0 7.55 -126.05 4.7 -131.8 -2.6 -137.6 -9.95 -138.65 -17.5 M-55.1 33.2 Q-50.95 29.9 -43.85 32.75 -36.85 35.65 -31.05 43.0 -25.3 50.35 -24.2 57.85 -23.1 65.4 -27.3 68.7 -31.45 71.95 -38.5 69.05 -45.55 66.2 -51.3 58.9 -57.1 51.55 -58.15 44.0 -59.3 36.45 -55.1 33.2 M-123.85 48.25 Q-116.85 51.15 -111.05 58.5 -105.3 65.85 -104.2 73.35 -103.1 80.9 -107.3 84.2 -111.45 87.45 -118.5 84.55 -125.55 81.7 -131.3 74.4 -137.1 67.05 -138.15 59.5 -139.3 51.95 -135.1 48.7 -130.95 45.4 -123.85 48.25 M-37.5 146.05 Q-44.55 143.2 -50.3 135.9 -56.1 128.55 -57.15 121.0 -58.3 113.45 -54.1 110.2 -49.95 106.9 -42.85 109.75 -35.85 112.65 -30.05 120.0 -24.3 127.35 -23.2 134.85 -22.1 142.4 -26.3 145.7 -30.45 148.95 -37.5 146.05" fill="#cccccc" fill-rule="evenodd" stroke="none" />
      <path d="M118.4 -23.95 Q128.25 -29.4 134.05 -25.4 139.8 -21.4 138.15 -10.3 136.6 0.75 128.55 12.45 120.45 24.15 110.65 29.6 100.9 35.05 95.1 31.05 89.3 27.05 90.9 16.0 92.55 4.9 100.6 -6.8 108.65 -18.5 118.4 -23.95 M70.05 84.8 Q75.8 88.8 74.15 99.9 72.6 110.95 64.55 122.65 56.45 134.35 46.65 139.8 36.9 145.25 31.1 141.25 25.3 137.25 26.9 126.2 28.55 115.1 36.6 103.4 44.65 91.7 54.4 86.25 64.25 80.8 70.05 84.8" fill="#999999" fill-rule="evenodd" stroke="none" />
    </g>
    <g id="s147-text0">
      <g transform="matrix(1.0, 0.0, 0.0, 1.0, 62.25, 0.0)">
        <use fill="#000000" height="57.4" transform="matrix(0.8691, 0.0, 0.0, 0.8691, 6.05, 40.95)" width="51.3" xlink:href="#s147-font_Monotone_00" />
        <use fill="#000000" height="57.4" transform="matrix(0.8691, 0.0, 0.0, 0.8691, 25.65, 40.95)" width="51.3" xlink:href="#s147-font_Monotone_00" />
      </g>
    </g>
    <g id="s147-font_Monotone_00">
      <path d="M12.65 -6.5 L9.6 -6.5 9.6 -27.8 12.65 -27.8 12.65 -6.5 M1.2 -29.25 L1.2 -5.3 6.15 0.0 15.7 0.0 21.05 -5.3 21.05 -29.25 15.7 -34.6 6.5 -34.6 1.2 -29.25" fill-rule="evenodd" stroke="none" />
    </g>
    <g id="s147-text1">
      <g transform="matrix(1.0, 0.0, 0.0, 1.0, 62.25, 0.0)">
        <use fill="#000000" height="57.4" transform="matrix(0.8691, 0.0, 0.0, 0.8691, 8.25, 40.95)" width="55.7" xlink:href="#s147-font_Monotone_00" />
        <use fill="#000000" height="57.4" transform="matrix(0.8691, 0.0, 0.0, 0.8691, 27.85, 40.95)" width="55.7" xlink:href="#s147-font_Monotone_00" />
      </g>
    </g>
  </defs>
</svg>